<svg width="29" height="29" viewBox="0 0 29 29" fill="none" xmlns="http://www.w3.org/2000/svg">
<path d="M24.6803 3.88902C25.0137 4.22241 25.1852 4.79867 25.08 5.68633C24.9757 6.56686 24.6062 7.6663 23.9801 8.91846C22.7304 11.4179 20.5108 14.4225 17.6093 17.324C14.7078 20.2256 11.7031 22.4452 9.20369 23.6949C7.95153 24.3209 6.85208 24.6905 5.97155 24.7948C5.0839 24.9 4.50764 24.7285 4.17424 24.3951C3.84085 24.0617 3.66935 23.4855 3.77455 22.5978C3.8789 21.7173 4.24843 20.6178 4.87451 19.3657C6.1242 16.8663 8.3438 13.8616 11.2453 10.9601C14.1468 8.05858 17.1515 5.83898 19.6509 4.58928C20.9031 3.9632 22.0025 3.59367 22.883 3.48932C23.7707 3.38412 24.3469 3.55563 24.6803 3.88902Z" stroke="white"/>
<path d="M3.88997 3.88902C3.55658 4.22241 3.38508 4.79867 3.49028 5.68633C3.59463 6.56686 3.96415 7.6663 4.59023 8.91846C5.83993 11.4179 8.05953 14.4225 10.961 17.324C13.8625 20.2256 16.8672 22.4452 19.3666 23.6949C20.6188 24.3209 21.7182 24.6905 22.5988 24.7948C23.4864 24.9 24.0627 24.7285 24.3961 24.3951C24.7295 24.0617 24.901 23.4855 24.7958 22.5978C24.6914 21.7173 24.3219 20.6178 23.6958 19.3657C22.4461 16.8663 20.2265 13.8616 17.325 10.9601C14.4235 8.05858 11.4188 5.83898 8.91941 4.58928C7.66725 3.9632 6.56781 3.59367 5.68728 3.48932C4.79963 3.38412 4.22337 3.55563 3.88997 3.88902Z" stroke="white"/>
</svg>
